<?xml version="1.0" standalone="no"?>
<!DOCTYPE svg PUBLIC "-//W3C//DTD SVG 20010904//EN"
 "http://www.w3.org/TR/2001/REC-SVG-20010904/DTD/svg10.dtd">
<svg version="1.0" xmlns="http://www.w3.org/2000/svg"
 width="600.000000pt" height="600.000000pt" viewBox="0 0 600.000000 600.000000"
 preserveAspectRatio="xMidYMid meet">
<metadata>
Created by potrace 1.11, written by Peter Selinger 2001-2013
</metadata>
<g transform="translate(0.000000,600.000000) scale(0.100000,-0.100000)"
fill="#000000" stroke="none">
<path d="M0 3000 l0 -3000 3000 0 3000 0 0 3000 0 3000 -3000 0 -3000 0 0
-3000z m1418 2463 c-2 -5 -16 -32 -31 -60 -15 -29 -34 -79 -42 -110 -14 -54
-14 -60 3 -83 43 -57 91 -30 121 68 21 71 80 162 116 182 15 8 34 6 77 -7 l57
-18 -58 -73 c-75 -94 -151 -232 -191 -348 l-31 -90 -59 -12 c-165 -35 -344
-178 -445 -357 -101 -179 -145 -418 -124 -673 45 -560 412 -1052 1004 -1342
162 -79 298 -129 476 -174 69 -17 126 -35 128 -41 1 -5 -30 -92 -70 -192 -64
-161 -75 -183 -95 -183 -48 0 -55 9 -33 43 34 57 17 117 -34 117 -32 0 -43
-10 -80 -67 l-32 -51 -70 21 c-38 11 -72 22 -74 23 -2 2 6 18 18 37 36 58 27
95 -27 112 -20 6 -32 -2 -75 -48 -43 -46 -55 -53 -72 -46 -11 5 -42 18 -68 29
l-48 20 25 33 c30 39 33 73 9 99 -27 30 -60 22 -113 -28 l-48 -45 -60 30 c-33
17 -63 34 -66 39 -3 5 10 24 29 42 39 38 43 55 19 88 -23 33 -62 28 -122 -18
l-53 -39 -64 42 c-36 23 -65 45 -65 49 0 4 8 9 19 13 31 10 71 53 71 76 0 30
-28 59 -57 59 -13 0 -47 -13 -76 -30 -30 -16 -60 -30 -68 -30 -8 0 -39 22 -69
49 l-55 48 51 22 c58 25 79 56 64 96 -14 38 -50 41 -125 11 -36 -14 -72 -26
-80 -26 -13 0 -106 91 -113 111 -2 5 3 9 10 9 8 0 37 7 65 15 40 12 53 21 63
44 26 64 -25 93 -119 67 -101 -28 -112 -25 -160 46 l-42 63 77 10 c81 12 104
27 104 71 0 40 -25 49 -144 49 l-111 0 -32 65 c-18 36 -33 68 -33 71 0 3 38 3
83 1 82 -4 84 -4 106 23 40 52 7 95 -75 95 -58 0 -154 16 -166 28 -5 5 -17 38
-27 75 -21 73 -21 73 39 58 87 -23 128 -23 149 -2 26 26 27 63 4 83 -10 9 -52
23 -93 31 -41 8 -91 22 -111 31 -36 15 -36 16 -43 87 -4 39 -6 73 -4 75 2 2
32 -8 67 -22 92 -37 124 -41 150 -15 45 45 22 82 -72 116 -37 13 -86 34 -108
47 -42 24 -46 36 -33 130 l6 45 71 -43 c104 -64 163 -58 155 17 -3 28 -12 38
-69 73 -37 23 -82 53 -100 67 l-33 26 18 78 18 77 47 -44 c93 -89 131 -106
165 -72 33 32 20 68 -42 123 -32 27 -71 69 -87 91 l-29 41 35 71 35 70 36 -58
c72 -116 117 -146 160 -107 29 26 22 64 -23 123 -22 30 -49 70 -59 90 -35 70
-35 75 15 140 45 58 65 68 65 31 0 -28 76 -178 95 -185 27 -10 47 -7 67 11 25
23 23 51 -12 124 -16 35 -36 91 -45 124 l-16 60 47 43 c26 24 55 47 65 53 17
9 19 6 19 -23 0 -39 24 -144 41 -181 14 -30 40 -42 75 -33 39 10 45 43 23 126
-10 41 -19 101 -19 135 0 67 -3 65 106 111 l30 13 -4 -113 c-4 -106 -3 -115
17 -135 11 -11 32 -21 44 -21 43 0 54 27 60 140 3 58 11 122 18 142 10 32 17
37 58 46 58 12 114 14 109 5z m3024 -20 c42 -46 75 -104 98 -176 16 -50 28
-71 46 -79 32 -15 71 3 80 36 8 32 -20 128 -57 194 l-29 52 32 -1 c18 0 55 -6
82 -12 48 -12 50 -13 63 -62 8 -27 15 -92 17 -144 2 -78 5 -96 21 -107 72 -53
116 34 96 186 -5 36 -7 66 -6 68 7 8 136 -60 142 -74 7 -18 -6 -118 -28 -216
-12 -52 -11 -59 6 -78 25 -28 70 -26 90 3 14 22 38 111 50 190 l6 38 27 -20
c15 -11 43 -34 62 -50 l35 -30 -18 -68 c-10 -37 -32 -98 -49 -136 -26 -57 -29
-71 -20 -92 13 -28 57 -43 81 -28 22 13 67 96 88 161 l17 52 22 -21 c13 -12
35 -39 49 -60 36 -50 29 -77 -48 -191 -53 -78 -59 -93 -51 -116 5 -15 21 -31
36 -36 38 -14 70 11 128 100 l49 75 36 -71 36 -71 -26 -33 c-14 -19 -55 -61
-90 -94 -68 -63 -76 -82 -49 -120 28 -41 66 -29 143 44 l70 65 16 -58 c9 -32
19 -66 21 -75 6 -20 -74 -86 -147 -123 -45 -23 -59 -40 -59 -73 0 -24 30 -52
57 -52 27 0 93 31 139 66 17 13 34 20 38 17 3 -4 6 -39 6 -80 l0 -73 -57 -28
c-32 -16 -76 -35 -98 -42 -22 -7 -48 -19 -57 -28 -27 -23 -23 -68 7 -88 28
-19 63 -13 144 22 29 13 55 24 57 24 6 0 4 -85 -2 -120 -8 -39 -39 -54 -158
-79 -71 -14 -83 -20 -94 -44 -12 -24 -11 -31 2 -52 22 -34 45 -38 127 -20 92
19 91 19 85 -2 -2 -10 -12 -43 -20 -74 l-16 -57 -63 -11 c-35 -6 -85 -11 -112
-11 -57 0 -85 -20 -85 -61 0 -47 36 -63 130 -56 l78 5 -32 -71 -33 -72 -114 0
c-63 0 -120 -4 -126 -8 -7 -5 -13 -24 -13 -42 0 -45 26 -62 108 -71 34 -3 62
-10 62 -14 0 -4 -18 -32 -41 -63 -45 -64 -56 -67 -152 -42 -32 8 -65 15 -74
15 -26 0 -53 -31 -53 -61 0 -34 25 -53 91 -70 27 -7 49 -16 49 -19 0 -3 -22
-31 -49 -61 l-49 -54 -63 23 c-94 35 -121 37 -142 14 -11 -12 -17 -31 -15 -49
2 -23 14 -34 59 -57 l56 -30 -56 -48 c-62 -55 -73 -56 -142 -13 -70 45 -123
28 -117 -37 2 -24 12 -38 38 -56 19 -13 36 -27 38 -31 3 -10 -103 -81 -121
-81 -8 0 -35 16 -60 35 -49 38 -86 44 -111 19 -28 -28 -20 -69 20 -102 l37
-30 -72 -36 -71 -36 -49 45 c-53 49 -80 56 -111 25 -28 -28 -25 -54 10 -93
l29 -34 -27 -13 c-15 -6 -48 -20 -73 -30 l-46 -19 -34 46 c-39 53 -70 68 -102
52 -45 -24 -49 -57 -11 -106 28 -37 32 -33 -64 -63 l-63 -18 -37 56 c-34 51
-41 57 -72 57 -27 0 -38 -6 -49 -27 -14 -25 -14 -31 6 -72 19 -38 20 -45 7
-50 -9 -3 -19 -6 -24 -6 -8 0 -164 380 -158 385 2 2 65 19 140 39 515 135 961
435 1210 815 68 103 151 277 182 383 96 315 85 656 -29 913 -91 206 -294 386
-482 428 l-58 13 -27 79 c-41 118 -103 234 -179 336 -38 50 -69 93 -69 95 0 5
91 32 111 33 8 1 27 -11 41 -26z m-1441 -603 c122 -23 225 -103 282 -220 30
-60 32 -72 32 -165 0 -91 -3 -106 -31 -165 -145 -301 -563 -303 -711 -3 -26
53 -28 67 -28 168 0 102 2 114 30 169 56 110 161 193 275 215 63 12 89 12 151
1z m-1595 -232 c0 -141 5 -214 17 -272 l17 -79 -40 -39 c-22 -22 -52 -65 -67
-96 -27 -55 -28 -63 -28 -207 0 -143 2 -154 32 -231 137 -360 509 -677 968
-826 l132 -43 11 -120 c9 -101 8 -121 -4 -128 -8 -4 -23 -26 -34 -47 -26 -50
-31 -53 -84 -39 -51 13 -51 13 -31 49 22 39 19 77 -10 96 -34 22 -60 10 -101
-46 l-35 -49 -40 14 c-60 22 -62 24 -34 57 32 37 33 81 3 102 -36 26 -55 19
-106 -35 l-48 -51 -42 21 c-23 12 -42 25 -42 29 0 5 14 21 30 37 50 48 34 115
-28 115 -18 0 -41 -15 -73 -46 l-48 -47 -45 27 c-25 15 -46 28 -46 30 0 2 18
16 40 31 47 33 59 65 36 100 -24 36 -60 32 -127 -15 l-56 -39 -38 32 -38 33
51 32 c47 28 52 35 52 67 0 26 -6 39 -26 52 -26 17 -28 16 -100 -22 l-73 -40
-36 35 c-19 19 -35 37 -35 40 0 4 17 12 39 18 83 25 114 79 71 122 -25 25 -28
25 -112 -5 -38 -14 -73 -25 -78 -25 -14 0 -61 73 -52 81 4 3 33 11 64 18 66
14 81 28 76 73 -4 48 -33 59 -111 42 -97 -21 -104 -19 -127 26 -11 21 -20 42
-20 45 0 3 19 5 43 5 57 1 118 16 128 32 16 25 10 66 -13 83 -18 12 -36 14
-80 9 -31 -4 -73 -3 -92 0 -30 6 -37 12 -46 44 -14 52 -13 65 6 58 9 -3 46 -9
82 -12 77 -7 105 6 105 50 0 36 -30 66 -65 66 -16 0 -60 7 -99 16 l-69 16 0
55 c0 49 2 54 18 48 129 -53 179 -56 200 -12 12 24 11 31 -2 52 -8 13 -26 27
-38 30 -13 4 -58 21 -102 37 l-78 30 5 51 c4 27 8 51 10 53 1 2 39 -15 83 -38
87 -45 123 -47 145 -7 20 39 3 67 -63 100 -34 17 -78 42 -99 56 l-37 25 15 44
c8 24 17 44 20 44 3 0 28 -21 56 -46 28 -25 63 -52 78 -60 51 -26 100 13 85
69 -3 12 -30 41 -60 65 -30 23 -64 55 -74 70 l-20 28 29 38 c25 34 29 37 35
20 53 -151 112 -206 164 -154 27 27 26 38 -16 117 -19 38 -38 87 -41 109 -5
39 -3 42 32 64 20 12 57 31 83 41 26 10 47 18 47 19 0 0 0 -87 1 -192z m3304
141 c33 -17 60 -35 60 -39 0 -21 -36 -121 -56 -156 -13 -22 -24 -52 -24 -67 0
-44 39 -68 84 -51 19 7 68 93 86 148 l13 39 28 -34 c16 -19 29 -39 29 -45 0
-6 -36 -45 -81 -87 -88 -82 -96 -104 -48 -139 34 -25 60 -15 136 56 l60 56 18
-47 18 -46 -24 -20 c-13 -10 -51 -33 -84 -49 -33 -17 -68 -37 -77 -46 -37 -32
-11 -102 38 -102 12 0 57 18 98 40 82 44 82 44 88 -23 4 -36 1 -40 -31 -56
-20 -10 -66 -28 -104 -40 -85 -28 -110 -69 -70 -113 22 -25 60 -23 139 7 36
14 69 25 72 25 5 0 -5 -100 -12 -107 -2 -2 -41 -11 -87 -20 -109 -20 -133 -31
-137 -67 -7 -60 50 -80 157 -55 24 5 45 8 47 7 2 -2 -2 -23 -8 -47 -14 -54
-39 -65 -134 -57 -62 5 -74 3 -92 -15 -27 -24 -28 -50 -4 -78 13 -17 32 -23
90 -28 39 -3 72 -10 72 -14 0 -5 -8 -24 -17 -44 -19 -39 -25 -41 -118 -24 -73
14 -111 7 -120 -22 -17 -52 14 -82 96 -95 21 -4 42 -10 45 -15 6 -10 -38 -79
-51 -79 -5 0 -45 12 -87 27 -75 27 -77 27 -97 9 -50 -45 -32 -90 48 -121 28
-11 51 -22 51 -25 0 -3 -15 -21 -34 -39 l-34 -33 -70 36 c-58 31 -74 35 -95
27 -30 -11 -46 -55 -30 -80 9 -14 41 -38 88 -66 15 -9 12 -14 -25 -43 l-41
-34 -54 41 c-80 60 -135 54 -135 -15 0 -26 9 -39 42 -67 l41 -35 -42 -26 -42
-27 -27 20 c-15 10 -38 31 -51 45 -28 30 -66 34 -93 9 -27 -25 -22 -59 17
-101 l34 -38 -46 -23 -47 -22 -46 50 c-51 56 -78 63 -110 31 -27 -27 -25 -48
6 -93 14 -21 24 -40 22 -41 -1 -2 -24 -10 -50 -19 l-47 -15 -31 48 c-35 55
-55 65 -93 51 -38 -15 -45 -54 -18 -101 l21 -38 -29 -5 c-16 -3 -40 -9 -54
-12 -23 -6 -28 -2 -48 37 -12 23 -25 45 -30 48 -9 6 9 252 19 261 4 3 36 14
72 24 347 94 708 346 899 628 54 80 118 227 135 309 37 182 -1 361 -94 440
l-38 34 16 64 c12 49 16 116 17 271 l0 206 27 -8 c15 -4 54 -22 88 -40z
m-3220 -643 c0 -31 123 -256 185 -338 83 -110 218 -243 323 -318 100 -71 288
-168 400 -206 74 -25 83 -30 78 -48 -4 -12 -11 -64 -17 -116 -18 -154 -5 -144
-139 -99 -402 134 -744 421 -861 723 -51 131 -52 316 -2 392 17 27 33 31 33
10z m3071 -38 c34 -79 32 -223 -5 -332 -107 -314 -452 -615 -864 -753 -113
-37 -122 -36 -122 18 0 21 -20 106 -47 200 -4 13 15 23 90 48 354 118 678 396
840 719 24 48 48 102 55 120 6 17 15 32 20 32 5 0 20 -24 33 -52z m-1474 -88
c94 -42 155 -108 186 -205 14 -40 88 -466 83 -472 0 -1 -36 -6 -79 -12 -158
-22 -609 -9 -640 18 -4 4 0 52 8 107 8 54 15 140 15 190 0 77 -3 95 -21 118
-19 24 -27 26 -90 26 -38 0 -69 4 -69 8 0 24 64 103 97 120 21 11 47 30 58 42
65 72 130 92 287 86 90 -4 129 -10 165 -26z m-364 -810 c151 -20 578 -9 659
16 20 6 39 -52 65 -194 38 -212 -28 -681 -160 -1132 l-52 -175 -217 -3 c-120
-1 -218 -1 -218 1 0 2 -20 71 -45 153 -168 551 -223 941 -174 1254 15 98 17
103 46 95 13 -3 57 -10 96 -15z m-165 -1085 c18 -74 56 -207 83 -296 l50 -161
-37 -41 c-21 -23 -57 -64 -82 -91 l-45 -48 -115 115 -115 115 109 271 c60 149
111 271 114 271 3 0 20 -61 38 -135z m1066 -145 l105 -265 -115 -113 c-64 -62
-117 -112 -119 -110 -2 2 -37 43 -78 92 l-74 89 28 84 c37 109 106 360 121
441 6 34 15 59 19 55 4 -5 55 -127 113 -273z m-1789 20 c58 -36 75 -87 75
-227 l0 -121 53 14 c28 7 55 14 59 14 4 0 12 -19 18 -42 6 -24 13 -50 16 -60
4 -13 -10 -19 -76 -34 -91 -19 -90 -17 -65 -119 22 -90 21 -95 -19 -95 -19 0
-46 -4 -59 -9 -24 -9 -25 -8 -43 80 -20 100 -15 96 -109 74 -33 -8 -65 -15
-71 -15 -9 0 -34 81 -34 109 0 5 27 14 60 21 34 7 59 16 58 19 -2 3 -23 45
-47 93 -66 130 -67 221 -3 280 55 51 123 58 187 18z m2525 1 c93 -67 94 -182
1 -339 -17 -29 -31 -54 -31 -56 0 -2 27 -9 60 -15 66 -13 67 -15 49 -87 -13
-49 -11 -49 -94 -29 -33 8 -66 15 -73 15 -15 0 -16 -3 -37 -102 -15 -70 -19
-77 -35 -68 -10 6 -37 10 -59 10 -23 0 -41 4 -41 8 0 4 9 47 19 95 10 48 16
89 13 91 -4 2 -40 11 -79 21 -80 19 -80 19 -62 91 10 39 15 45 33 40 11 -2 38
-8 59 -11 l37 -7 0 111 c0 119 12 165 53 210 49 53 132 63 187 22z m-2000
-658 c-39 -73 -70 -140 -70 -150 0 -10 12 -54 26 -98 42 -131 32 -227 -28
-269 -46 -32 -54 -23 -53 62 0 86 -19 135 -76 191 -83 83 -225 103 -316 45
-21 -13 -21 -16 -7 -49 13 -31 13 -35 -1 -35 -26 0 -95 70 -95 96 0 30 64 103
107 120 23 10 57 12 121 8 140 -10 146 -6 243 189 l81 160 69 -69 69 -68 -70
-133z m1454 112 c93 -194 99 -199 233 -192 51 3 109 1 127 -4 38 -11 116 -92
116 -121 0 -23 -72 -98 -95 -98 -12 0 -15 5 -10 18 21 49 18 58 -27 78 -68 30
-161 25 -229 -13 -98 -55 -145 -142 -137 -255 4 -50 2 -58 -13 -58 -30 0 -78
49 -90 93 -13 50 -6 107 28 213 l26 81 -72 138 -73 138 68 68 c38 38 70 69 71
69 2 0 36 -70 77 -155z m-952 85 c-7 -165 -43 -805 -48 -867 l-6 -72 -66 25
c-37 14 -70 28 -74 32 -6 6 134 896 147 930 3 7 15 12 27 10 21 -3 23 -8 20
-58z m178 58 c7 -59 56 -1015 53 -1018 -5 -5 -153 -3 -158 2 -1 2 10 226 26
498 15 272 28 501 29 508 0 9 49 19 50 10z m174 -7 c13 -20 156 -925 147 -934
-5 -5 -38 -19 -75 -33 -46 -17 -66 -20 -67 -11 0 6 -13 228 -28 492 -15 264
-26 483 -24 488 6 10 41 9 47 -2z m-1198 -516 c153 -45 192 -241 69 -343 -157
-129 -385 39 -309 227 14 34 19 39 37 32 37 -14 107 -22 107 -12 0 4 -7 27
-15 50 -16 46 -17 45 56 60 3 0 28 -6 55 -14z m2116 -2 c4 -2 0 -25 -7 -51 -8
-26 -15 -48 -15 -50 0 -4 84 11 108 19 20 8 25 4 38 -26 18 -43 18 -116 0
-158 -21 -50 -78 -98 -134 -112 -110 -29 -213 33 -243 146 -34 125 85 261 211
242 19 -3 38 -7 42 -10z"/>
<path d="M2832 4663 c-152 -75 -176 -289 -45 -389 100 -76 229 -61 316 35 131
145 24 371 -175 371 -38 0 -76 -7 -96 -17z"/>
<path d="M1569 3737 c-42 -28 -49 -67 -20 -96 26 -26 47 -26 89 -1 26 16 32
26 32 54 0 25 -7 39 -22 50 -30 21 -39 20 -79 -7z"/>
<path d="M1701 3534 c-36 -30 -41 -72 -13 -97 27 -25 60 -21 93 12 34 34 37
63 9 91 -27 27 -52 25 -89 -6z"/>
<path d="M1871 3384 c-39 -50 -19 -114 35 -114 32 0 74 45 74 80 0 59 -72 81
-109 34z"/>
<path d="M2066 3271 c-26 -28 -32 -84 -11 -104 22 -22 68 -22 88 1 27 30 33
79 12 102 -23 25 -67 26 -89 1z"/>
<path d="M2271 3174 c-54 -68 10 -157 73 -102 37 32 44 80 17 107 -29 29 -65
27 -90 -5z"/>
<path d="M4370 3753 c-22 -8 -40 -34 -40 -59 0 -25 52 -74 79 -74 56 0 85 82
39 112 -30 20 -59 27 -78 21z"/>
<path d="M4222 3544 c-34 -23 -30 -77 7 -103 37 -26 65 -27 91 -1 28 28 25 57
-11 91 -35 33 -55 36 -87 13z"/>
<path d="M4036 3388 c-22 -31 -20 -52 10 -87 33 -40 76 -42 100 -6 44 68 -64
159 -110 93z"/>
<path d="M3855 3276 c-23 -17 -24 -66 -1 -101 14 -22 24 -26 54 -23 50 4 67
37 46 87 -8 19 -20 39 -27 43 -19 12 -51 9 -72 -6z"/>
<path d="M3647 3182 c-33 -36 -16 -105 29 -122 51 -20 90 24 73 83 -15 55 -69
76 -102 39z"/>
<path d="M2792 3868 c-29 -29 0 -78 46 -78 32 0 72 25 72 45 0 38 -88 63 -118
33z"/>
<path d="M2636 3004 c-20 -19 -21 -81 -1 -126 19 -46 76 -95 119 -103 94 -18
186 74 186 186 0 51 -69 79 -102 42 -9 -10 -18 -34 -22 -54 -4 -21 -14 -43
-22 -50 -14 -11 -19 -10 -35 10 -11 13 -19 33 -19 45 0 56 -67 88 -104 50z"/>
<path d="M3092 3008 c-15 -15 -16 -87 -1 -125 15 -40 67 -91 106 -104 52 -17
99 -3 143 41 80 80 79 200 -3 200 -34 0 -53 -21 -61 -68 -8 -53 -30 -71 -56
-47 -11 10 -20 30 -20 44 0 42 -26 71 -64 71 -17 0 -37 -5 -44 -12z"/>
<path d="M2866 2738 c-31 -44 7 -157 66 -200 71 -50 176 -21 217 60 44 88 32
162 -27 162 -40 0 -49 -9 -69 -70 -10 -29 -23 -55 -29 -57 -20 -6 -44 27 -50
68 -4 23 -14 44 -25 49 -30 17 -67 11 -83 -12z"/>
<path d="M2699 2429 c-43 -43 -4 -168 65 -210 44 -27 114 -25 157 4 43 28 79
98 79 154 0 53 -34 82 -78 67 -25 -9 -29 -16 -51 -94 -5 -18 -13 -25 -31 -25
-22 0 -27 7 -37 50 -19 74 -62 96 -104 54z"/>
<path d="M3030 2423 c-15 -20 -19 -35 -15 -57 14 -68 28 -96 66 -130 35 -32
45 -36 94 -36 47 0 59 4 90 31 43 38 60 69 70 127 6 37 4 47 -16 68 -41 43
-92 21 -103 -44 -12 -79 -62 -80 -81 -3 -17 71 -67 92 -105 44z"/>
<path d="M2870 2113 c-21 -28 -21 -47 1 -120 12 -37 68 -90 105 -99 45 -12
104 3 136 33 39 37 54 68 63 125 6 39 4 49 -14 67 -41 41 -94 16 -105 -47 -12
-78 -61 -81 -81 -5 -19 76 -65 97 -105 46z"/>
<path d="M1725 1839 c-7 -22 16 -93 47 -144 l18 -30 0 78 c0 43 -5 87 -10 98
-14 25 -47 24 -55 -2z"/>
<path d="M4250 1835 c-12 -32 -13 -155 -1 -155 14 0 62 119 59 148 -4 39 -44
44 -58 7z"/>
</g>
</svg>
